# This file uses centimeters as units for non-parametric coordinates.

mtllib CUADRO.mtl
g default
v -0.178355 0.306887 0.012740
v 0.178355 0.306887 0.012740
v -0.178355 0.816472 0.012740
v 0.178355 0.816472 0.012740
v -0.178355 0.816472 -0.012740
v 0.178355 0.816472 -0.012740
v -0.178355 0.306887 -0.012740
v 0.178355 0.306887 -0.012740
v -0.152875 0.332367 0.000000
v 0.152875 0.332367 0.000000
v 0.152875 0.790993 0.000000
v -0.152875 0.790993 0.000000
v -0.170709 0.314533 0.012740
v -0.163424 0.321818 0.010729
v -0.156897 0.328346 0.007465
v -0.152875 0.332367 0.003823
v 0.170709 0.314533 0.012740
v 0.163424 0.321818 0.010729
v 0.156897 0.328346 0.007465
v 0.152875 0.332367 0.003823
v 0.170709 0.808827 0.012740
v 0.163424 0.801542 0.010729
v 0.156897 0.795014 0.007465
v 0.152875 0.790993 0.003823
v -0.170709 0.808827 0.012740
v -0.163424 0.801542 0.010729
v -0.156897 0.795014 0.007465
v -0.152875 0.790993 0.003823
vt 0.116337 -0.000000
vt 0.499849 -0.000000
vt 0.499849 1.000000
vt 0.116337 1.000000
vt 0.116337 1.000000
vt 0.499849 1.000000
vt 0.121208 -0.000000
vt 0.461196 -0.000000
vt 0.461196 1.000000
vt 0.121208 1.000000
vt 0.134449 -0.000000
vt 0.274271 0.000000
vt 0.478103 0.255316
vt 0.389751 -0.000000
vt 0.228103 0.255316
vt 0.478103 0.255316
vt 0.423266 0.000000
vt 0.228103 0.255316
vt 0.384279 0.015003
vt 0.375000 0.000000
vt 0.478103 0.255316
vt 0.139921 0.015003
vt 0.228103 0.255316
vt 0.478103 0.250000
vt 0.361989 0.000000
vt 0.228103 0.250000
vt 0.232471 0.003948
vt 0.233771 0.005246
vt 0.389751 1.000000
vt 0.384279 0.984996
vt 0.473667 0.251429
vt 0.472308 0.250184
vt 0.231223 0.252549
vt 0.230375 0.253233
vt 0.516315 0.000000
vt 0.974416 0.000000
vt 0.974416 1.000000
vt 0.516315 1.000000
vt 0.112539 1.000000
vt 0.477912 1.000000
vt 0.477912 -0.000000
vt 0.112539 -0.000000
vt 0.461196 -0.000000
vt 0.121208 -0.000000
vt 0.121208 1.000000
vt 0.461196 1.000000
vt 0.499849 0.000000
vt 0.116337 0.000000
vt 0.152685 0.050000
vt 0.371516 0.050000
vt 0.371516 0.050000
vt 0.152685 0.050000
vt 0.371516 0.950000
vt 0.371516 0.950000
vt 0.149807 0.042109
vt 0.374394 0.042109
vt 0.145135 0.029299
vt 0.379066 0.029299
vt 0.374394 0.957891
vt 0.379066 0.970701
vn 0.000000 0.000000 1.000000
vn 0.000000 0.000000 1.000000
vn 0.000000 0.000000 1.000000
vn 0.000000 0.000000 1.000000
vn 0.000000 1.000000 0.000000
vn 0.000000 1.000000 0.000000
vn 0.000000 1.000000 0.000000
vn 0.000000 1.000000 0.000000
vn 0.000000 0.000000 -1.000000
vn 0.000000 0.000000 -1.000000
vn 0.000000 0.000000 -1.000000
vn 0.000000 0.000000 -1.000000
vn 0.000000 -1.000000 0.000000
vn 0.000000 -1.000000 0.000000
vn 0.000000 -1.000000 0.000000
vn 0.000000 -1.000000 0.000000
vn 1.000000 0.000000 0.000000
vn 1.000000 0.000000 0.000000
vn 1.000000 0.000000 0.000000
vn 1.000000 0.000000 0.000000
vn -1.000000 0.000000 0.000000
vn -1.000000 0.000000 0.000000
vn -1.000000 0.000000 0.000000
vn -1.000000 0.000000 0.000000
vn -0.000000 0.000000 1.000000
vn -0.000000 0.000000 1.000000
vn -0.039036 0.026782 0.998879
vn 0.039036 0.026782 0.998879
vn -0.000000 0.000000 1.000000
vn -0.039036 -0.026783 0.998879
vn -0.000000 0.000000 1.000000
vn 0.039036 -0.026783 0.998879
vn 0.000000 0.843932 0.536449
vn 0.000000 0.843932 0.536449
vn 0.000000 1.000000 0.000000
vn 0.000000 1.000000 0.000000
vn -0.844380 0.000000 0.535745
vn -0.844380 0.000000 0.535745
vn -1.000000 0.000000 0.000000
vn -1.000000 0.000000 0.000000
vn 0.000000 -0.843928 0.536456
vn 0.000000 -0.843928 0.536456
vn 0.000000 -1.000000 0.000000
vn 0.000000 -1.000000 0.000000
vn 0.844380 0.000000 0.535745
vn 0.844380 0.000000 0.535745
vn 1.000000 0.000000 0.000000
vn 1.000000 0.000000 0.000000
vn 0.501505 0.000000 0.865155
vn 0.501505 0.000000 0.865155
vn 0.312881 0.000000 0.949792
vn 0.312881 0.000000 0.949792
vn 0.000000 0.501052 0.865417
vn 0.000000 0.501052 0.865417
vn 0.000000 0.312414 0.949946
vn 0.000000 0.312414 0.949946
vn -0.501505 0.000000 0.865155
vn -0.501505 0.000000 0.865155
vn -0.312881 0.000000 0.949792
vn -0.312882 0.000000 0.949792
vn 0.000000 -0.501051 0.865418
vn 0.000000 -0.501051 0.865418
vn 0.000000 -0.312415 0.949946
vn 0.000000 -0.312415 0.949946
s off
g pCube3
usemtl phong3SG
f 9/35/1 10/36/2 11/37/3 12/38/4
f 3/1/5 4/2/6 6/3/7 5/4/8
f 5/39/9 6/40/10 8/41/11 7/42/12
f 7/5/13 8/6/14 2/47/15 1/48/16
f 2/7/17 8/8/18 6/9/19 4/10/20
f 7/43/21 1/44/22 3/45/23 5/46/24
s 1
f 1/11/25 2/14/26 17/19/27 13/22/28
f 2/14/26 4/29/29 21/30/30 17/19/27
f 4/13/29 3/15/31 25/18/32 21/16/30
f 3/15/31 1/17/25 13/12/28 25/18/32
f 16/49/33 20/50/34 10/51/35 9/52/36
f 20/50/37 24/53/38 11/54/39 10/51/40
f 24/21/41 28/23/42 12/26/43 11/24/44
f 28/23/45 16/25/46 9/20/47 12/26/48
f 15/28/49 16/25/46 28/23/45 27/34/50
f 13/12/28 14/27/51 26/33/52 25/18/32
f 14/27/51 15/28/49 27/34/50 26/33/52
f 16/49/33 15/55/53 19/56/54 20/50/34
f 15/55/53 14/57/55 18/58/56 19/56/54
f 14/57/55 13/22/28 17/19/27 18/58/56
f 20/50/37 19/56/57 23/59/58 24/53/38
f 19/56/57 18/58/59 22/60/60 23/59/58
f 18/58/59 17/19/27 21/30/30 22/60/60
f 24/21/41 23/32/61 27/34/62 28/23/42
f 23/32/61 22/31/63 26/33/64 27/34/62
f 22/31/63 21/16/30 25/18/32 26/33/64
