# This file uses centimeters as units for non-parametric coordinates.

mtllib Cristal.mtl
g default
v -0.431853 2.756408 -4.863414
v 0.625152 2.756408 -4.863414
v -0.431853 4.315214 -4.863414
v 0.625152 4.315214 -4.863414
v -0.431853 4.315214 -4.947054
v 0.625152 4.315214 -4.947054
v -0.431853 2.756408 -4.947054
v 0.625152 2.756408 -4.947054
vt 0.001890 0.668528
vt 0.331370 0.668528
vt 0.331370 0.998008
vt 0.001890 0.998008
vt 0.338705 0.668528
vt 0.668185 0.668528
vt 0.668185 0.998008
vt 0.338705 0.998008
vt 0.338705 0.001992
vt 0.668185 0.001992
vt 0.668185 0.331472
vt 0.338705 0.331472
vt 0.282356 0.335260
vt 0.611836 0.335260
vt 0.611836 0.664740
vt 0.282356 0.664740
vt 0.001890 0.001992
vt 0.331370 0.001992
vt 0.331370 0.331472
vt 0.001890 0.331472
vt 0.617659 0.335260
vt 0.947139 0.335260
vt 0.947139 0.664740
vt 0.617659 0.664740
vn 0.000000 0.000000 1.000000
vn 0.000000 0.000000 1.000000
vn 0.000000 0.000000 1.000000
vn 0.000000 0.000000 1.000000
vn 0.000000 1.000000 0.000000
vn 0.000000 1.000000 0.000000
vn 0.000000 1.000000 0.000000
vn 0.000000 1.000000 0.000000
vn 0.000000 0.000000 -1.000000
vn 0.000000 0.000000 -1.000000
vn 0.000000 0.000000 -1.000000
vn 0.000000 0.000000 -1.000000
vn 0.000000 -1.000000 0.000000
vn 0.000000 -1.000000 0.000000
vn 0.000000 -1.000000 0.000000
vn 0.000000 -1.000000 0.000000
vn 1.000000 0.000000 0.000000
vn 1.000000 0.000000 0.000000
vn 1.000000 0.000000 0.000000
vn 1.000000 0.000000 0.000000
vn -1.000000 0.000000 0.000000
vn -1.000000 0.000000 0.000000
vn -1.000000 0.000000 0.000000
vn -1.000000 0.000000 0.000000
s off
g pCube42
usemtl phong36SG
f 1/17/1 2/18/2 4/19/3 3/20/4
f 3/9/5 4/10/6 6/11/7 5/12/8
f 5/21/9 6/22/10 8/23/11 7/24/12
f 7/13/13 8/14/14 2/15/15 1/16/16
f 2/1/17 8/2/18 6/3/19 4/4/20
f 7/5/21 1/6/22 3/7/23 5/8/24
g default
v -0.625268 0.687000 2.090436
v -0.625268 0.687000 1.108732
v -0.625268 1.917000 2.090436
v -0.625268 1.917000 1.108732
v -0.705268 1.917000 2.090436
v -0.705268 1.917000 1.108732
v -0.705268 0.687000 2.090436
v -0.705268 0.687000 1.108732
vt 0.001891 0.998008
vt 0.001891 0.668528
vt 0.331370 0.668528
vt 0.331370 0.998008
vt 0.338705 0.668528
vt 0.668185 0.668528
vt 0.668185 0.998008
vt 0.338705 0.998008
vt 0.338705 0.001992
vt 0.668185 0.001992
vt 0.668185 0.331472
vt 0.338705 0.331472
vt 0.282356 0.335260
vt 0.611836 0.335260
vt 0.611836 0.664740
vt 0.282356 0.664740
vt 0.001890 0.001992
vt 0.331370 0.001992
vt 0.331370 0.331472
vt 0.001890 0.331472
vt 0.617659 0.335260
vt 0.947139 0.335260
vt 0.947139 0.664740
vt 0.617659 0.664740
vn 1.000000 0.000000 0.000000
vn 1.000000 0.000000 0.000000
vn 1.000000 0.000000 0.000000
vn 1.000000 0.000000 0.000000
vn 0.000000 1.000000 0.000000
vn 0.000000 1.000000 0.000000
vn 0.000000 1.000000 0.000000
vn 0.000000 1.000000 0.000000
vn -1.000000 0.000000 -0.000000
vn -1.000000 0.000000 -0.000000
vn -1.000000 0.000000 -0.000000
vn -1.000000 0.000000 -0.000000
vn 0.000000 -1.000000 0.000000
vn 0.000000 -1.000000 0.000000
vn 0.000000 -1.000000 0.000000
vn 0.000000 -1.000000 0.000000
vn 0.000000 0.000000 -1.000000
vn 0.000000 0.000000 -1.000000
vn 0.000000 0.000000 -1.000000
vn 0.000000 0.000000 -1.000000
vn 0.000000 0.000000 1.000000
vn 0.000000 0.000000 1.000000
vn 0.000000 0.000000 1.000000
vn 0.000000 0.000000 1.000000
s off
g pCube40
usemtl phong36SG
f 9/41/25 10/42/26 12/43/27 11/44/28
f 11/33/29 12/34/30 14/35/31 13/36/32
f 13/45/33 14/46/34 16/47/35 15/48/36
f 15/37/37 16/38/38 10/39/39 9/40/40
f 10/25/41 16/26/42 14/27/43 12/28/44
f 15/29/45 9/30/46 11/31/47 13/32/48
g default
v -0.281606 0.686720 2.432173
v 0.315376 0.686720 2.432173
v -0.281606 1.921485 2.432173
v 0.315376 1.921485 2.432173
v -0.281606 1.921485 2.352173
v 0.315376 1.921485 2.352173
v -0.281606 0.686720 2.352173
v 0.315376 0.686720 2.352173
vt 0.001890 0.668528
vt 0.331370 0.668528
vt 0.331370 0.998008
vt 0.001890 0.998008
vt 0.338705 0.668528
vt 0.668185 0.668528
vt 0.668185 0.998008
vt 0.338705 0.998008
vt 0.338705 0.001992
vt 0.668185 0.001992
vt 0.668185 0.331472
vt 0.338705 0.331472
vt 0.282356 0.335260
vt 0.611836 0.335260
vt 0.611836 0.664740
vt 0.282356 0.664740
vt 0.001891 0.001992
vt 0.331370 0.001992
vt 0.331370 0.331472
vt 0.001891 0.331472
vt 0.617659 0.335260
vt 0.947139 0.335260
vt 0.947139 0.664740
vt 0.617659 0.664740
vn 0.000000 0.000000 1.000000
vn 0.000000 0.000000 1.000000
vn 0.000000 0.000000 1.000000
vn 0.000000 0.000000 1.000000
vn 0.000000 1.000000 0.000000
vn 0.000000 1.000000 0.000000
vn 0.000000 1.000000 0.000000
vn 0.000000 1.000000 0.000000
vn 0.000000 0.000000 -1.000000
vn 0.000000 0.000000 -1.000000
vn 0.000000 0.000000 -1.000000
vn 0.000000 0.000000 -1.000000
vn 0.000000 -1.000000 0.000000
vn 0.000000 -1.000000 0.000000
vn 0.000000 -1.000000 0.000000
vn 0.000000 -1.000000 0.000000
vn 1.000000 0.000000 0.000000
vn 1.000000 0.000000 0.000000
vn 1.000000 0.000000 0.000000
vn 1.000000 0.000000 0.000000
vn -1.000000 0.000000 0.000000
vn -1.000000 0.000000 0.000000
vn -1.000000 0.000000 0.000000
vn -1.000000 0.000000 0.000000
s off
g pCube39
usemtl phong36SG
f 17/65/49 18/66/50 20/67/51 19/68/52
f 19/57/53 20/58/54 22/59/55 21/60/56
f 21/69/57 22/70/58 24/71/59 23/72/60
f 23/61/61 24/62/62 18/63/63 17/64/64
f 18/49/65 24/50/66 22/51/67 20/52/68
f 23/53/69 17/54/70 19/55/71 21/56/72
g default
v 8.318276 2.756408 -4.863414
v 9.375280 2.756408 -4.863414
v 8.318276 4.315214 -4.863414
v 9.375280 4.315214 -4.863414
v 8.318276 4.315214 -4.947054
v 9.375280 4.315214 -4.947054
v 8.318276 2.756408 -4.947054
v 9.375280 2.756408 -4.947054
vt 0.001890 0.668528
vt 0.331370 0.668528
vt 0.331370 0.998008
vt 0.001890 0.998008
vt 0.338705 0.668528
vt 0.668185 0.668528
vt 0.668185 0.998008
vt 0.338705 0.998008
vt 0.338705 0.001992
vt 0.668185 0.001992
vt 0.668185 0.331472
vt 0.338705 0.331472
vt 0.282356 0.335260
vt 0.611836 0.335260
vt 0.611836 0.664740
vt 0.282356 0.664740
vt 0.001890 0.001992
vt 0.331370 0.001992
vt 0.331370 0.331472
vt 0.001890 0.331472
vt 0.617659 0.335260
vt 0.947139 0.335260
vt 0.947139 0.664740
vt 0.617659 0.664740
vn 0.000000 0.000000 1.000000
vn 0.000000 0.000000 1.000000
vn 0.000000 0.000000 1.000000
vn 0.000000 0.000000 1.000000
vn 0.000000 1.000000 0.000000
vn 0.000000 1.000000 0.000000
vn 0.000000 1.000000 0.000000
vn 0.000000 1.000000 0.000000
vn 0.000000 0.000000 -1.000000
vn 0.000000 0.000000 -1.000000
vn 0.000000 0.000000 -1.000000
vn 0.000000 0.000000 -1.000000
vn 0.000000 -1.000000 0.000000
vn 0.000000 -1.000000 0.000000
vn 0.000000 -1.000000 0.000000
vn 0.000000 -1.000000 0.000000
vn 1.000000 0.000000 0.000000
vn 1.000000 0.000000 0.000000
vn 1.000000 0.000000 0.000000
vn 1.000000 0.000000 0.000000
vn -1.000000 0.000000 0.000000
vn -1.000000 0.000000 0.000000
vn -1.000000 0.000000 0.000000
vn -1.000000 0.000000 0.000000
s off
g pCube43
usemtl phong36SG
f 25/89/73 26/90/74 28/91/75 27/92/76
f 27/81/77 28/82/78 30/83/79 29/84/80
f 29/93/81 30/94/82 32/95/83 31/96/84
f 31/85/85 32/86/86 26/87/87 25/88/88
f 26/73/89 32/74/90 30/75/91 28/76/92
f 31/77/93 25/78/94 27/79/95 29/80/96
g default
v -0.378850 2.790331 2.432173
v 0.531216 2.790331 2.432173
v -0.378850 4.281291 2.432173
v 0.531216 4.281291 2.432173
v -0.378850 4.281291 2.352173
v 0.531216 4.281291 2.352173
v -0.378850 2.790331 2.352173
v 0.531216 2.790331 2.352173
vt 0.001891 0.668528
vt 0.331370 0.668528
vt 0.331370 0.998008
vt 0.001891 0.998008
vt 0.338705 0.998008
vt 0.338705 0.668528
vt 0.668185 0.668528
vt 0.668185 0.998008
vt 0.338705 0.001992
vt 0.668185 0.001992
vt 0.668185 0.331472
vt 0.338705 0.331472
vt 0.282356 0.335260
vt 0.611836 0.335260
vt 0.611836 0.664740
vt 0.282356 0.664740
vt 0.001890 0.001992
vt 0.331370 0.001992
vt 0.331370 0.331472
vt 0.001890 0.331472
vt 0.617659 0.335260
vt 0.947139 0.335260
vt 0.947139 0.664740
vt 0.617659 0.664740
vn 0.000000 0.000000 1.000000
vn 0.000000 0.000000 1.000000
vn 0.000000 0.000000 1.000000
vn 0.000000 0.000000 1.000000
vn 0.000000 1.000000 0.000000
vn 0.000000 1.000000 0.000000
vn 0.000000 1.000000 0.000000
vn 0.000000 1.000000 0.000000
vn 0.000000 0.000000 -1.000000
vn 0.000000 0.000000 -1.000000
vn 0.000000 0.000000 -1.000000
vn 0.000000 0.000000 -1.000000
vn 0.000000 -1.000000 0.000000
vn 0.000000 -1.000000 0.000000
vn 0.000000 -1.000000 0.000000
vn 0.000000 -1.000000 0.000000
vn 1.000000 0.000000 0.000000
vn 1.000000 0.000000 0.000000
vn 1.000000 0.000000 0.000000
vn 1.000000 0.000000 0.000000
vn -1.000000 0.000000 0.000000
vn -1.000000 0.000000 0.000000
vn -1.000000 0.000000 0.000000
vn -1.000000 0.000000 0.000000
s off
g pCube41
usemtl phong36SG
f 33/113/97 34/114/98 36/115/99 35/116/100
f 35/105/101 36/106/102 38/107/103 37/108/104
f 37/117/105 38/118/106 40/119/107 39/120/108
f 39/109/109 40/110/110 34/111/111 33/112/112
f 34/97/113 40/98/114 38/99/115 36/100/116
f 39/101/117 33/102/118 35/103/119 37/104/120
g default
v 9.613346 1.307631 -0.801100
v 9.613346 1.307631 -1.596100
v 9.613346 2.096631 -0.801100
v 9.613346 2.096631 -1.596100
v 9.575307 2.096631 -0.801100
v 9.575307 2.096631 -1.596100
v 9.575307 1.307631 -0.801100
v 9.575307 1.307631 -1.596100
vt 0.001890 0.668528
vt 0.331371 0.668528
vt 0.331371 0.998008
vt 0.001890 0.998008
vt 0.338705 0.668528
vt 0.668185 0.668528
vt 0.668185 0.998008
vt 0.338705 0.998008
vt 0.338705 0.001992
vt 0.668185 0.001992
vt 0.668185 0.331472
vt 0.338705 0.331472
vt 0.282356 0.335260
vt 0.611836 0.335260
vt 0.611836 0.664740
vt 0.282356 0.664740
vt 0.001891 0.001992
vt 0.331371 0.001992
vt 0.331371 0.331472
vt 0.001891 0.331472
vt 0.617659 0.335260
vt 0.947139 0.335260
vt 0.947139 0.664740
vt 0.617659 0.664740
vn 1.000000 0.000000 0.000000
vn 1.000000 0.000000 0.000000
vn 1.000000 0.000000 0.000000
vn 1.000000 0.000000 0.000000
vn 0.000000 1.000000 0.000000
vn 0.000000 1.000000 0.000000
vn 0.000000 1.000000 0.000000
vn 0.000000 1.000000 0.000000
vn -1.000000 0.000000 -0.000000
vn -1.000000 0.000000 -0.000000
vn -1.000000 0.000000 -0.000000
vn -1.000000 0.000000 -0.000000
vn 0.000000 -1.000000 0.000000
vn 0.000000 -1.000000 0.000000
vn 0.000000 -1.000000 0.000000
vn 0.000000 -1.000000 0.000000
vn 0.000000 0.000000 -1.000000
vn 0.000000 0.000000 -1.000000
vn 0.000000 0.000000 -1.000000
vn 0.000000 0.000000 -1.000000
vn 0.000000 0.000000 1.000000
vn 0.000000 0.000000 1.000000
vn 0.000000 0.000000 1.000000
vn 0.000000 0.000000 1.000000
s off
g pCube45
usemtl phong36SG
f 41/137/121 42/138/122 44/139/123 43/140/124
f 43/129/125 44/130/126 46/131/127 45/132/128
f 45/141/129 46/142/130 48/143/131 47/144/132
f 47/133/133 48/134/134 42/135/135 41/136/136
f 42/121/137 48/122/138 46/123/139 44/124/140
f 47/125/141 41/126/142 43/127/143 45/128/144
g default
v 9.644263 2.756408 1.088075
v 9.644263 2.756408 0.031071
v 9.644263 4.315214 1.088075
v 9.644263 4.315214 0.031071
v 9.560623 4.315214 1.088075
v 9.560623 4.315214 0.031071
v 9.560623 2.756408 1.088075
v 9.560623 2.756408 0.031071
vt 0.001890 0.668528
vt 0.331370 0.668528
vt 0.331370 0.998008
vt 0.001890 0.998008
vt 0.338705 0.668528
vt 0.668185 0.668528
vt 0.668185 0.998008
vt 0.338705 0.998008
vt 0.338705 0.001992
vt 0.668185 0.001992
vt 0.668185 0.331472
vt 0.338705 0.331472
vt 0.282356 0.335260
vt 0.611836 0.335260
vt 0.611836 0.664740
vt 0.282356 0.664740
vt 0.001890 0.001992
vt 0.331370 0.001992
vt 0.331370 0.331472
vt 0.001890 0.331472
vt 0.617659 0.335260
vt 0.947139 0.335260
vt 0.947139 0.664740
vt 0.617659 0.664740
vn 1.000000 0.000000 0.000000
vn 1.000000 0.000000 0.000000
vn 1.000000 0.000000 0.000000
vn 1.000000 0.000000 0.000000
vn 0.000000 1.000000 0.000000
vn 0.000000 1.000000 0.000000
vn 0.000000 1.000000 0.000000
vn 0.000000 1.000000 0.000000
vn -1.000000 0.000000 -0.000000
vn -1.000000 0.000000 -0.000000
vn -1.000000 0.000000 -0.000000
vn -1.000000 0.000000 -0.000000
vn 0.000000 -1.000000 0.000000
vn 0.000000 -1.000000 0.000000
vn 0.000000 -1.000000 0.000000
vn 0.000000 -1.000000 0.000000
vn 0.000000 0.000000 -1.000000
vn 0.000000 0.000000 -1.000000
vn 0.000000 0.000000 -1.000000
vn 0.000000 0.000000 -1.000000
vn 0.000000 0.000000 1.000000
vn 0.000000 0.000000 1.000000
vn 0.000000 0.000000 1.000000
vn 0.000000 0.000000 1.000000
s off
g pCube44
usemtl phong36SG
f 49/161/145 50/162/146 52/163/147 51/164/148
f 51/153/149 52/154/150 54/155/151 53/156/152
f 53/165/153 54/166/154 56/167/155 55/168/156
f 55/157/157 56/158/158 50/159/159 49/160/160
f 50/145/161 56/146/162 54/147/163 52/148/164
f 55/149/165 49/150/166 51/151/167 53/152/168
