# This file uses centimeters as units for non-parametric coordinates.

mtllib Elices.mtl
g default
v 0.032134 0.004780 0.003084
v 0.032134 0.004780 -0.003031
v 0.032134 0.007263 -0.003031
v 0.032134 0.007263 0.003084
v -0.002436 0.004780 0.031887
v 0.002975 0.004780 0.031887
v 0.002975 0.007263 0.031887
v -0.002436 0.007263 0.031887
v 0.004192 0.007263 0.003084
v 0.004192 0.004780 0.003084
v 0.002975 0.004780 0.003945
v 0.002975 0.007263 0.003945
v 0.004192 0.007263 -0.003031
v -0.002436 0.007263 0.003945
v 0.004192 0.004780 -0.003031
v -0.002436 0.004780 0.003945
v 0.002975 0.004780 -0.003891
v 0.002975 0.007263 -0.003891
v 0.002975 -0.006708 0.003945
v 0.004192 -0.006708 0.003084
v -0.004191 0.004780 0.002189
v -0.004191 0.007263 0.002189
v 0.004192 -0.006708 -0.003031
v -0.002436 -0.006708 0.003945
v -0.002436 0.004780 -0.003891
v -0.004191 0.004780 -0.002136
v -0.004191 0.007263 -0.002136
v -0.002436 0.007263 -0.003891
v 0.002975 -0.006708 -0.003891
v -0.004191 -0.006708 0.002189
v -0.002436 -0.006708 -0.003891
v -0.004191 -0.006708 -0.002136
v 0.002975 0.004779 -0.031833
v 0.002975 0.007263 -0.031833
v -0.032133 0.007263 0.002189
v -0.032133 0.004780 0.002189
v -0.002436 0.007263 -0.031833
v -0.032133 0.007263 -0.002136
v -0.002436 0.004779 -0.031833
v -0.032133 0.004780 -0.002136
vt 1.041141 2.333347
vt 1.041141 2.242050
vt 1.078220 2.242050
vt 1.078220 2.333347
vt 1.570439 2.304935
vt 1.570439 2.224161
vt 1.607519 2.224161
vt 1.607519 2.304935
vt 0.424869 1.886661
vt 0.387789 1.886661
vt 0.387789 1.469497
vt 0.424869 1.469497
vt 0.125292 -0.056417
vt 0.162371 -0.056417
vt 0.162373 0.360748
vt 0.125293 0.360748
vt 1.178951 -0.375123
vt 1.087654 -0.375123
vt 1.087654 -0.792287
vt 1.178951 -0.792287
vt 1.074808 -0.356956
vt 1.074808 -0.276182
vt 0.657643 -0.276182
vt 0.657643 -0.356956
vt 0.545248 1.886662
vt 0.453951 1.886662
vt 0.453951 1.469497
vt 0.545248 1.469497
vt 0.578005 1.469497
vt 0.658779 1.469497
vt 0.658779 1.886661
vt 0.578005 1.886661
vt -0.072248 -0.173405
vt -0.109327 -0.173406
vt -0.109326 -0.590570
vt -0.072246 -0.590570
vt 0.722598 1.886662
vt 0.685519 1.886662
vt 0.685519 1.469497
vt 0.722598 1.469497
vt 0.125292 -0.069263
vt 0.162371 -0.069263
vt 0.125292 -0.160560
vt 0.125292 -0.173406
vt 0.162371 -0.173406
vt 0.162371 -0.160560
vt -0.046211 -0.056416
vt -0.046211 -0.069262
vt -0.109327 -0.147198
vt -0.072248 -0.147197
vt -0.046211 -0.160559
vt -0.861023 2.421749
vt -0.780250 2.421749
vt -0.780250 2.593252
vt -0.861023 2.593252
vt -0.109327 -0.056417
vt -0.109327 -0.082625
vt -0.072248 -0.082625
vt -0.072248 -0.056417
vt -0.046211 -0.173405
vt -0.280830 -0.147198
vt -0.280830 -0.173406
vt -0.672736 2.593252
vt -0.753510 2.593252
vt -0.753510 2.421749
vt -0.672736 2.421749
vt -0.280830 -0.082625
vt -0.280830 -0.056417
vt 0.125291 -0.590570
vt 0.162370 -0.590570
vt 0.751681 1.469498
vt 0.788761 1.469498
vt 0.788761 1.886662
vt 0.751681 1.886662
vt 1.191797 -0.276182
vt 1.191797 -0.356956
vt 1.608961 -0.356956
vt 1.608961 -0.276182
vt 1.101016 -0.249973
vt 1.165588 -0.249973
vt 1.165588 0.167191
vt 1.101016 0.167191
vt 0.898617 1.886662
vt 0.817844 1.886662
vt 0.817844 1.469498
vt 0.898617 1.469498
vt 0.925357 1.469498
vt 0.989930 1.469498
vt 0.989930 1.886662
vt 0.925357 1.886662
vt 1.016330 1.469497
vt 1.053409 1.469497
vt 1.053409 1.886661
vt 1.016330 1.886661
vt -0.072249 0.360748
vt -0.109328 0.360748
vt 1.673681 2.224161
vt 1.673681 2.304935
vt 1.636601 2.304935
vt 1.636601 2.224161
vt 1.760655 2.288734
vt 1.760655 2.224161
vt 1.797734 2.224162
vt 1.797734 2.288735
vn 1.000000 0.000000 0.000000
vn 1.000000 0.000000 0.000000
vn 1.000000 0.000000 0.000000
vn 1.000000 0.000000 0.000000
vn 0.000000 0.000003 1.000000
vn 0.000000 0.000003 1.000000
vn 0.000000 0.000003 1.000000
vn 0.000000 0.000003 1.000000
vn 0.000000 0.000004 1.000000
vn 0.000000 0.000004 1.000000
vn 0.000000 0.000004 1.000000
vn 0.000000 0.000004 1.000000
vn 1.000000 0.000000 0.000000
vn 1.000000 0.000000 0.000000
vn 1.000000 0.000000 0.000000
vn 1.000000 0.000000 0.000000
vn 0.000000 1.000000 0.000000
vn 0.000000 1.000000 0.000000
vn 0.000000 1.000000 0.000000
vn 0.000000 1.000000 0.000000
vn 0.000000 1.000000 -0.000002
vn 0.000000 1.000000 -0.000002
vn 0.000000 1.000000 -0.000004
vn 0.000000 1.000000 -0.000004
vn 0.000000 -1.000000 0.000000
vn 0.000000 -1.000000 0.000000
vn 0.000000 -1.000000 0.000000
vn 0.000000 -1.000000 0.000000
vn 0.000000 -1.000000 0.000004
vn 0.000000 -1.000000 0.000004
vn 0.000000 -1.000000 0.000004
vn 0.000000 -1.000000 0.000004
vn -1.000000 0.000000 0.000000
vn -1.000000 0.000000 0.000000
vn -1.000000 0.000000 0.000000
vn -1.000000 0.000000 0.000000
vn 0.000000 0.000000 -1.000000
vn 0.000000 0.000000 -1.000000
vn 0.000000 0.000000 -1.000000
vn 0.000000 0.000000 -1.000000
vn 0.577353 0.000003 0.816495
vn 0.577353 0.000003 0.816494
vn 0.577354 0.000003 0.816494
vn 0.577354 0.000003 0.816494
vn 0.577350 -0.000003 -0.816497
vn 0.577350 -0.000003 -0.816497
vn 0.577350 -0.000001 -0.816496
vn 0.577351 -0.000001 -0.816496
vn 0.577353 0.000003 0.816495
vn 0.577353 0.000003 0.816495
vn -0.707106 0.000002 0.707107
vn -0.707107 0.000002 0.707107
vn -0.707107 0.000003 0.707107
vn -0.707107 0.000003 0.707107
vn 1.000000 0.000000 0.000000
vn 1.000000 0.000000 0.000000
vn 1.000000 0.000000 0.000000
vn 1.000000 0.000000 0.000000
vn 0.000000 0.000003 1.000000
vn 0.000000 0.000003 1.000000
vn 0.000000 0.000003 1.000000
vn 0.000000 0.000003 1.000000
vn -0.707107 -0.000002 -0.707107
vn -0.707107 -0.000002 -0.707107
vn -0.707107 -0.000001 -0.707107
vn -0.707107 -0.000001 -0.707107
vn 0.577350 -0.000003 -0.816497
vn 0.577350 -0.000003 -0.816497
vn -0.707106 0.000002 0.707107
vn -0.707106 0.000002 0.707107
vn 0.000000 -0.000004 -1.000000
vn 0.000000 -0.000004 -1.000000
vn 0.000000 -0.000004 -1.000000
vn 0.000000 -0.000004 -1.000000
vn -1.000000 0.000000 0.000000
vn -1.000000 0.000000 0.000000
vn -1.000000 0.000000 0.000000
vn -1.000000 0.000000 0.000000
vn -0.707107 -0.000003 -0.707107
vn -0.707107 -0.000003 -0.707107
vn 1.000000 0.000000 0.000000
vn 1.000000 0.000000 0.000000
vn 1.000000 0.000000 0.000000
vn 1.000000 0.000000 0.000000
vn 0.000000 0.000006 1.000000
vn 0.000000 0.000006 1.000000
vn 0.000000 0.000006 1.000000
vn 0.000000 0.000006 1.000000
vn 0.000000 1.000000 -0.000001
vn 0.000000 1.000000 -0.000001
vn 0.000000 1.000000 -0.000002
vn 0.000000 1.000000 -0.000002
vn 0.000000 1.000000 0.000000
vn 0.000000 1.000000 0.000000
vn 0.000000 1.000000 0.000000
vn 0.000000 1.000000 0.000000
vn 0.000000 -1.000000 0.000002
vn 0.000000 -1.000000 0.000002
vn 0.000000 -1.000000 0.000002
vn 0.000000 -1.000000 0.000002
vn 0.000000 -1.000000 0.000000
vn 0.000000 -1.000000 0.000000
vn 0.000000 -1.000000 0.000000
vn 0.000000 -1.000000 0.000000
vn 0.000000 -0.000001 -1.000000
vn 0.000000 -0.000001 -1.000000
vn 0.000000 -0.000001 -1.000000
vn 0.000000 -0.000001 -1.000000
vn -1.000000 0.000000 0.000000
vn -1.000000 0.000000 0.000000
vn -1.000000 0.000000 0.000000
vn -1.000000 0.000000 0.000000
vn 0.000000 0.000000 -1.000000
vn 0.000000 0.000000 -1.000000
vn 0.000000 0.000000 -1.000000
vn 0.000000 0.000000 -1.000000
vn -1.000000 0.000000 0.000000
vn -1.000000 0.000000 0.000000
vn -1.000000 0.000000 0.000000
vn -1.000000 0.000000 0.000000
s off
g polySurface64 polySurface58
usemtl phong41SG
f 1/1/1 2/2/2 3/3/3 4/4/4
f 5/5/5 6/6/6 7/7/7 8/8/8
f 9/9/9 10/10/10 1/11/11 4/12/12
f 11/13/13 12/14/14 7/15/15 6/16/16
s 1
f 13/17/17 9/18/18 4/19/19 3/20/20
f 12/21/21 14/22/22 8/23/23 7/24/24
s off
f 10/25/25 15/26/26 2/27/27 1/28/28
f 16/29/29 11/30/30 6/31/31 5/32/32
f 14/33/33 16/34/34 5/35/35 8/36/36
f 15/37/37 13/38/38 3/39/39 2/40/40
s 2
f 11/13/41 10/41/42 9/42/43 12/14/44
s 3
f 15/43/45 17/44/46 18/45/47 13/46/48
s 2
f 19/47/49 20/48/50 10/41/42 11/13/41
s 4
f 21/49/51 16/34/52 14/33/53 22/50/54
s off
f 20/48/55 23/51/56 15/43/57 10/41/58
f 24/52/59 19/53/60 11/54/61 16/55/62
s 5
f 25/56/63 26/57/64 27/58/65 28/59/66
s 3
f 23/51/67 29/60/68 17/44/46 15/43/45
s 4
f 30/61/69 24/62/70 16/34/52 21/49/51
s off
f 29/63/71 31/64/72 25/65/73 17/66/74
f 32/67/75 30/61/76 21/49/77 26/57/78
s 5
f 31/68/79 32/67/80 26/57/64 25/56/63
s off
f 18/45/81 17/44/82 33/69/83 34/70/84
f 21/71/85 22/72/86 35/73/87 36/74/88
s 1
f 28/75/89 18/76/90 34/77/91 37/78/92
f 22/79/93 27/80/94 38/81/95 35/82/96
s off
f 17/83/97 25/84/98 39/85/99 33/86/100
f 26/87/101 21/88/102 36/89/103 40/90/104
f 27/91/105 26/92/106 40/93/107 38/94/108
f 25/56/109 28/59/110 37/95/111 39/96/112
f 33/97/113 39/98/114 37/99/115 34/100/116
f 40/101/117 36/102/118 35/103/119 38/104/120
s 1
f 12/21/21 9/18/18 13/17/17 18/76/90 28/75/89 27/80/94 22/79/93 14/22/22
