# This file uses centimeters as units for non-parametric coordinates.

mtllib Puerta00.mtl
g default
v 6.484054 2.521613 2.430921
v 7.504710 2.521613 2.430921
v 7.504710 2.521613 2.524482
v 6.484054 2.521613 2.524482
v 6.484054 4.269227 2.524482
v 6.484054 4.269227 2.430921
v 6.535399 3.568903 2.430921
v 6.535399 3.784077 2.430921
v 6.535399 3.784077 2.524482
v 6.535399 3.568903 2.524482
v 6.976424 3.568903 2.430921
v 6.976424 3.568903 2.524482
v 6.535399 3.826043 2.430921
v 6.535399 4.012151 2.430921
v 6.535399 4.012151 2.524482
v 6.535399 3.826043 2.524482
v 6.976424 3.784077 2.430921
v 6.976424 3.784077 2.524482
v 6.976424 3.826043 2.430921
v 6.976424 3.826043 2.524482
v 6.535399 4.046982 2.430921
v 6.535399 4.197889 2.430921
v 6.535399 4.197889 2.524482
v 6.535399 4.046982 2.524482
v 7.028739 3.568903 2.430921
v 7.028739 3.784077 2.430921
v 7.028739 3.784077 2.524482
v 7.028739 3.568903 2.524482
v 6.976424 4.012151 2.430921
v 6.976424 4.012151 2.524482
v 6.976424 4.046982 2.430921
v 6.976424 4.046982 2.524482
v 7.450980 3.568903 2.430921
v 7.450980 3.568903 2.524482
v 6.976424 4.197889 2.430921
v 6.976424 4.197889 2.524482
v 7.028739 3.826043 2.430921
v 7.028738 4.012151 2.430921
v 7.028738 4.012151 2.524482
v 7.028739 3.826043 2.524482
v 7.504710 4.269227 2.430921
v 7.504710 4.269227 2.524482
v 7.450980 3.784077 2.430921
v 7.450980 3.784077 2.524482
v 7.450980 3.826043 2.430921
v 7.450980 3.826043 2.524482
v 7.028738 4.046982 2.430921
v 7.028738 4.197889 2.430921
v 7.028738 4.197889 2.524482
v 7.028738 4.046982 2.524482
v 7.450980 4.012151 2.430921
v 7.450980 4.012151 2.524482
v 7.450980 4.046982 2.430921
v 7.450980 4.046982 2.524482
v 7.450980 4.197889 2.430921
v 7.450980 4.197889 2.524482
vt 0.034590 -0.001915
vt 0.161326 -0.001915
vt 0.161326 2.043144
vt 0.034590 2.043144
vt 1.096863 2.055584
vt 1.096863 2.307381
vt 0.970127 2.307381
vt 0.970127 2.055584
vt 0.513431 2.055584
vt 0.513431 2.273369
vt 0.386695 2.273369
vt 0.386695 2.055584
vt 0.307717 2.285809
vt 0.307717 2.462401
vt 0.180981 2.462401
vt 0.180981 2.285809
vt 0.824269 2.307381
vt 0.824269 2.055584
vt 0.951005 2.055584
vt 0.951005 2.307381
vt 0.805147 2.055584
vt 0.805147 2.307381
vt 0.678411 2.307381
vt 0.678411 2.055584
vt 0.240837 2.273369
vt 0.240837 2.055584
vt 0.367573 2.055584
vt 0.367573 2.273369
vt 0.221715 2.055584
vt 0.221715 2.273369
vt 0.094979 2.273369
vt 0.094979 2.055584
vt 0.180981 -0.001915
vt 0.307717 -0.001915
vt 0.307717 2.043144
vt 0.180981 2.043144
vt 0.332838 2.462401
vt 0.332838 2.285809
vt 0.459575 2.285809
vt 0.459575 2.462401
vt 0.611432 2.319821
vt 0.611432 2.496413
vt 0.484696 2.496413
vt 0.484696 2.319821
vt 0.532553 2.307381
vt 0.532553 2.055584
vt 0.659289 2.055584
vt 0.659289 2.307381
vt 0.034590 2.503594
vt 0.034590 2.285809
vt 0.161326 2.285809
vt 0.161326 2.503594
vt 0.636553 2.496413
vt 0.636553 2.319821
vt 0.763289 2.319821
vt 0.763289 2.496413
vt 3.012137 3.438159
vt 3.012137 2.055584
vt 3.138874 2.055584
vt 3.138874 3.438159
vt 2.847157 2.055584
vt 2.847157 2.652993
vt 2.720421 2.652993
vt 2.720421 2.055584
vt 2.574564 2.652993
vt 2.574564 2.055584
vt 2.701299 2.055584
vt 2.701299 2.652993
vt 2.555441 2.055584
vt 2.555441 2.652993
vt 2.428706 2.652993
vt 2.428706 2.055584
vt 2.282848 2.652993
vt 2.282848 2.055584
vt 2.409584 2.055584
vt 2.409584 2.652993
vt 2.263726 2.055584
vt 2.263726 2.652993
vt 2.136990 2.652993
vt 2.136990 2.055584
vt 1.972011 2.055584
vt 1.972011 2.627548
vt 1.845275 2.627548
vt 1.845275 2.055584
vt 1.991133 2.652993
vt 1.991133 2.055584
vt 2.117868 2.055584
vt 2.117868 2.652993
vt 1.699417 2.627549
vt 1.699417 2.055584
vt 1.826153 2.055584
vt 1.826153 2.627549
vt 1.680295 2.055584
vt 1.680295 2.627549
vt 1.553558 2.627549
vt 1.553558 2.055584
vt 2.866279 3.438159
vt 2.866279 2.055584
vt 2.993015 2.055584
vt 2.993015 3.438159
vt 1.407700 2.627550
vt 1.407700 2.055584
vt 1.534436 2.055584
vt 1.534436 2.627550
vt 1.388578 2.055584
vt 1.388578 2.627550
vt 1.261843 2.627550
vt 1.261843 2.055584
vt 1.115985 2.627550
vt 1.115985 2.055584
vt 1.242721 2.055584
vt 1.242721 2.627550
vt 0.999799 1.959664
vt 0.999799 1.783072
vt 0.402390 1.783072
vt 0.402390 1.742314
vt 0.999799 1.742314
vt 1.070664 1.742314
vt 1.070664 1.783072
vt 1.070664 1.959664
vt 1.715414 -0.001915
vt 1.715414 2.043144
vt 0.332838 2.043144
vt 0.402390 1.223624
vt 0.402390 1.475421
vt 0.402390 1.524529
vt 0.402390 1.959664
vt 1.642630 1.959664
vt 0.332838 -0.001915
vt 1.070666 1.223624
vt 1.070666 1.475421
vt 1.070666 1.524529
vt 0.999799 1.524529
vt 0.999799 1.475421
vt 0.999799 1.223624
vt 1.642630 1.783072
vt 1.642630 1.742314
vt 1.642630 1.524529
vt 1.642630 1.475421
vt 1.642630 1.223624
vt 2.402962 0.081565
vt 1.805553 0.081565
vt 1.805553 0.258157
vt 1.805553 0.298915
vt 1.805553 0.516700
vt 1.805553 0.565808
vt 1.805553 0.817605
vt 1.736002 -0.001915
vt 3.118577 -0.001915
vt 3.045793 0.258157
vt 3.045793 0.081565
vt 2.473828 0.081565
vt 2.473828 0.258157
vt 2.473828 0.298915
vt 2.402962 0.298915
vt 2.402962 0.258157
vt 2.402962 0.817605
vt 2.402962 0.565808
vt 2.402962 0.516700
vt 2.473829 0.516700
vt 2.473829 0.565808
vt 2.473829 0.817605
vt 3.118577 2.043144
vt 1.736002 2.043144
vt 3.045793 0.817605
vt 3.045793 0.565808
vt 3.045793 0.516700
vt 3.045793 0.298915
vn 0.000000 -1.000000 0.000000
vn 0.000000 -1.000000 0.000000
vn 0.000000 -1.000000 0.000000
vn 0.000000 -1.000000 0.000000
vn -1.000000 0.000000 0.000000
vn -1.000000 0.000000 0.000000
vn -1.000000 0.000000 0.000000
vn -1.000000 0.000000 0.000000
vn 1.000000 0.000000 0.000000
vn 1.000000 0.000000 0.000000
vn 1.000000 0.000000 0.000000
vn 1.000000 0.000000 0.000000
vn 0.000000 1.000000 0.000000
vn 0.000000 1.000000 0.000000
vn 0.000000 1.000000 0.000000
vn 0.000000 1.000000 0.000000
vn 1.000000 0.000000 0.000000
vn 1.000000 0.000000 0.000000
vn 1.000000 0.000000 0.000000
vn 1.000000 0.000000 0.000000
vn 0.000000 -1.000000 0.000000
vn 0.000000 -1.000000 0.000000
vn 0.000000 -1.000000 0.000000
vn 0.000000 -1.000000 0.000000
vn 0.000000 1.000000 0.000000
vn 0.000000 1.000000 0.000000
vn 0.000000 1.000000 0.000000
vn 0.000000 1.000000 0.000000
vn 1.000000 0.000000 0.000000
vn 1.000000 0.000000 0.000000
vn 1.000000 0.000000 0.000000
vn 1.000000 0.000000 0.000000
vn -1.000000 0.000000 0.000000
vn -1.000000 0.000000 0.000000
vn -1.000000 0.000000 0.000000
vn -1.000000 0.000000 0.000000
vn 1.000000 0.000000 0.000000
vn 1.000000 0.000004 0.000000
vn 1.000000 0.000002 0.000000
vn 1.000000 0.000006 0.000000
vn 0.000000 -1.000000 0.000000
vn 0.000000 -1.000000 0.000000
vn 0.000000 -1.000000 0.000000
vn 0.000000 -1.000000 0.000000
vn 0.000000 1.000000 0.000000
vn 0.000000 1.000000 0.000000
vn 0.000000 1.000000 0.000000
vn 0.000000 1.000000 0.000000
vn 0.000000 1.000000 0.000000
vn 0.000000 1.000000 0.000000
vn 0.000000 1.000000 0.000000
vn 0.000000 1.000000 0.000000
vn -1.000000 0.000000 0.000000
vn -1.000000 0.000000 0.000000
vn -1.000000 0.000000 0.000000
vn -1.000000 0.000000 0.000000
vn 0.000000 -1.000000 0.000000
vn 0.000000 -1.000000 0.000000
vn 0.000000 -1.000000 0.000000
vn 0.000000 -1.000000 0.000000
vn 1.000000 0.000003 0.000000
vn 1.000000 0.000001 0.000000
vn 1.000000 0.000002 0.000000
vn 1.000000 0.000000 0.000000
vn 1.000000 0.000000 0.000000
vn 1.000000 0.000000 0.000000
vn 1.000000 0.000000 0.000000
vn 1.000000 0.000000 0.000000
vn 0.000000 -1.000000 0.000000
vn 0.000000 -1.000000 0.000000
vn 0.000000 -1.000000 0.000000
vn 0.000000 -1.000000 0.000000
vn -1.000000 0.000000 0.000000
vn -1.000000 0.000000 0.000000
vn -1.000000 0.000000 0.000000
vn -1.000000 0.000000 0.000000
vn 0.000000 1.000000 0.000000
vn 0.000000 1.000000 0.000000
vn 0.000000 1.000000 0.000000
vn 0.000000 1.000000 0.000000
vn 1.000000 0.000000 0.000000
vn 1.000000 0.000000 0.000000
vn 1.000000 0.000000 0.000000
vn 1.000000 0.000000 0.000000
vn -1.000000 0.000000 0.000000
vn -1.000000 0.000000 0.000000
vn -1.000000 0.000000 0.000000
vn -1.000000 0.000000 0.000000
vn 0.000000 1.000000 0.000000
vn 0.000000 1.000000 0.000000
vn 0.000000 1.000000 0.000000
vn 0.000000 1.000000 0.000000
vn 0.000000 -1.000000 0.000000
vn 0.000000 -1.000000 0.000000
vn 0.000000 -1.000000 0.000000
vn 0.000000 -1.000000 0.000000
vn 0.000000 1.000000 0.000000
vn 0.000000 1.000000 0.000000
vn 0.000000 1.000000 0.000000
vn 0.000000 1.000000 0.000000
vn -1.000000 0.000000 0.000000
vn -1.000000 0.000000 0.000000
vn -1.000000 0.000000 0.000000
vn -1.000000 0.000000 0.000000
vn 0.000000 -1.000000 0.000000
vn 0.000000 -1.000000 0.000000
vn 0.000000 -1.000000 0.000000
vn 0.000000 -1.000000 0.000000
vn -1.000000 0.000000 0.000000
vn -1.000000 0.000000 0.000000
vn -1.000000 0.000000 0.000000
vn -1.000000 0.000000 0.000000
vn 0.000000 0.000000 1.000000
vn 0.000000 0.000000 1.000000
vn 0.000000 0.000000 1.000000
vn 0.000000 0.000000 1.000000
vn 0.000000 0.000000 1.000000
vn 0.000000 0.000000 1.000000
vn 0.000000 0.000000 1.000000
vn 0.000000 0.000000 1.000000
vn 0.000000 0.000000 -1.000000
vn -0.000000 0.000000 -1.000000
vn 0.000010 0.000000 -1.000000
vn -0.000015 0.000000 -1.000000
vn 0.000007 0.000000 -1.000000
vn -0.000007 0.000000 -1.000000
vn 0.000001 0.000000 -1.000000
vn 0.000000 0.000000 -1.000000
vn -0.000002 0.000000 -1.000000
vn 0.000001 0.000000 -1.000000
vn 0.000002 0.000000 -1.000000
vn 0.000000 0.000000 -1.000000
vn 0.000000 0.000000 -1.000000
vn 0.000000 0.000000 -1.000000
vn 0.000000 0.000000 -1.000000
vn 0.000000 0.000000 -1.000000
vn 0.000000 0.000000 1.000000
vn 0.000000 0.000000 1.000000
vn 0.000000 0.000000 1.000000
vn -0.000001 0.000000 1.000000
vn 0.000013 0.000000 1.000000
vn -0.000000 0.000000 1.000000
vn 0.000000 0.000000 1.000000
vn 0.000000 0.000000 1.000000
vn 0.000000 0.000000 -1.000000
vn 0.000000 0.000000 -1.000000
vn 0.000002 0.000000 -1.000000
vn 0.000000 0.000000 -1.000000
vn 0.000000 0.000000 -1.000000
vn -0.000019 0.000000 -1.000000
vn -0.000015 0.000000 -1.000000
vn -0.000000 0.000000 -1.000000
vn 0.000035 0.000000 1.000000
vn 0.000000 0.000000 1.000000
vn 0.000000 0.000000 1.000000
vn 0.000000 0.000000 1.000000
vn 0.000000 0.000000 1.000000
vn 0.000048 0.000000 1.000000
vn 0.000000 0.000000 1.000000
vn 0.000000 0.000000 1.000000
vn 0.000000 0.000000 -1.000000
vn 0.000000 0.000000 -1.000000
vn 0.000000 0.000000 -1.000000
vn 0.000000 0.000000 -1.000000
vn -0.000000 0.000000 1.000000
vn 0.000000 0.000000 1.000000
vn 0.000000 0.000000 1.000000
vn 0.000000 0.000000 1.000000
s 1
g Cuadro:polySurface52
usemtl phongE5SG
f 1/57/1 2/58/2 4/60/3
f 4/60/3 2/58/2 3/59/4
s 2
f 1/1/5 4/2/6 6/4/7
f 6/4/7 4/2/6 5/3/8
s 3
f 7/5/9 8/6/10 10/8/11
f 10/8/11 8/6/10 9/7/12
s 4
f 11/61/13 7/62/14 12/64/15
f 12/64/15 7/62/14 10/63/16
s 5
f 13/9/17 14/10/18 16/12/19
f 16/12/19 14/10/18 15/11/20
s 6
f 8/65/21 17/66/22 9/68/23
f 9/68/23 17/66/22 18/67/24
s 7
f 19/69/25 13/70/26 20/72/27
f 20/72/27 13/70/26 16/71/28
s 8
f 21/13/29 22/14/30 24/16/31
f 24/16/31 22/14/30 23/15/32
s 9
f 17/17/33 11/18/34 18/20/35
f 18/20/35 11/18/34 12/19/36
s 10
f 25/21/37 26/22/38 28/24/39
f 28/24/39 26/22/38 27/23/40
s 11
f 14/73/41 29/74/42 15/76/43
f 15/76/43 29/74/42 30/75/44
s 12
f 31/77/45 21/78/46 32/80/47
f 32/80/47 21/78/46 24/79/48
s 13
f 33/81/49 25/82/50 34/84/51
f 34/84/51 25/82/50 28/83/52
s 14
f 29/25/53 19/26/54 30/28/55
f 30/28/55 19/26/54 20/27/56
s 15
f 22/85/57 35/86/58 23/88/59
f 23/88/59 35/86/58 36/87/60
s 16
f 37/29/61 38/30/62 40/32/63
f 40/32/63 38/30/62 39/31/64
s 17
f 3/33/65 2/34/66 42/36/67
f 42/36/67 2/34/66 41/35/68
s 18
f 26/89/69 43/90/70 27/92/71
f 27/92/71 43/90/70 44/91/72
s 19
f 35/37/73 31/38/74 36/40/75
f 36/40/75 31/38/74 32/39/76
s 20
f 45/93/77 37/94/78 46/96/79
f 46/96/79 37/94/78 40/95/80
s 21
f 47/41/81 48/42/82 50/44/83
f 50/44/83 48/42/82 49/43/84
s 22
f 43/45/85 33/46/86 44/48/87
f 44/48/87 33/46/86 34/47/88
s 23
f 5/97/89 42/98/90 6/100/91
f 6/100/91 42/98/90 41/99/92
s 24
f 38/101/93 51/102/94 39/104/95
f 39/104/95 51/102/94 52/103/96
s 25
f 53/105/97 47/106/98 54/108/99
f 54/108/99 47/106/98 50/107/100
s 26
f 51/49/101 45/50/102 52/52/103
f 52/52/103 45/50/102 46/51/104
s 27
f 48/109/105 55/110/106 49/112/107
f 49/112/107 55/110/106 56/111/108
s 28
f 55/53/109 53/54/110 56/56/111
f 56/56/111 53/54/110 54/55/112
s 29
f 36/113/113 32/114/114 49/120/115
f 49/120/115 32/114/114 50/119/116
f 24/115/117 15/116/118 32/114/114
f 39/118/119 50/119/116 30/117/120
f 50/119/116 32/114/114 30/117/120
f 32/114/114 15/116/118 30/117/120
s 32
f 7/147/121 6/148/122 8/146/123
f 8/146/123 6/148/122 13/145/124
f 13/145/124 6/148/122 14/144/125
f 14/144/125 6/148/122 21/143/126
f 41/149/127 35/141/128 6/148/122
f 21/143/126 6/148/122 22/142/129
f 35/141/128 22/142/129 6/148/122
f 53/150/130 55/151/131 41/149/127
f 38/154/132 29/155/133 47/153/134
f 14/144/125 21/143/126 29/155/133
f 21/143/126 31/156/135 29/155/133
f 29/155/133 31/156/135 47/153/134
f 47/153/134 31/156/135 48/152/136
f 31/156/135 35/141/128 48/152/136
f 35/141/128 41/149/127 48/152/136
f 55/151/131 48/152/136 41/149/127
s 29
f 3/121/137 42/122/138 56/128/139
f 10/124/140 9/125/141 5/123/142
f 9/125/141 16/126/143 5/123/142
f 16/126/143 15/116/118 5/123/142
f 15/116/118 24/115/117 5/123/142
f 24/115/117 23/127/144 5/123/142
f 42/122/138 5/123/142 56/128/139
f 56/128/139 5/123/142 49/120/115
f 49/120/115 5/123/142 36/113/113
f 5/123/142 23/127/144 36/113/113
s 32
f 41/149/127 2/163/145 53/150/130
f 25/162/146 33/165/147 2/163/145
f 26/161/148 37/160/149 43/166/150
f 37/160/149 45/167/151 43/166/150
f 38/154/132 47/153/134 51/168/152
f 47/153/134 53/150/130 51/168/152
f 53/150/130 2/163/145 51/168/152
f 51/168/152 2/163/145 45/167/151
f 45/167/151 2/163/145 43/166/150
f 33/165/147 43/166/150 2/163/145
s 29
f 56/128/139 54/136/153 3/121/137
f 50/119/116 39/118/119 54/136/153
f 39/118/119 52/137/154 54/136/153
f 54/136/153 52/137/154 3/121/137
f 52/137/154 46/138/155 3/121/137
f 40/132/156 27/131/157 46/138/155
f 27/131/157 44/139/158 46/138/155
f 46/138/155 44/139/158 3/121/137
f 44/139/158 34/140/159 3/121/137
f 3/121/137 34/140/159 28/130/160
s 32
f 6/148/122 7/147/121 1/164/161
f 2/163/145 1/164/161 25/162/146
f 8/146/123 13/145/124 17/158/162
f 13/145/124 19/159/163 17/158/162
f 29/155/133 38/154/132 19/159/163
f 38/154/132 37/160/149 19/159/163
f 19/159/163 37/160/149 17/158/162
f 37/160/149 26/161/148 17/158/162
f 17/158/162 26/161/148 11/157/164
f 26/161/148 25/162/146 11/157/164
f 25/162/146 1/164/161 11/157/164
f 7/147/121 11/157/164 1/164/161
s 29
f 5/123/142 4/129/165 10/124/140
f 3/121/137 28/130/160 4/129/165
f 39/118/119 30/117/120 40/132/156
f 30/117/120 20/133/166 40/132/156
f 40/132/156 20/133/166 27/131/157
f 16/126/143 9/125/141 20/133/166
f 9/125/141 18/134/167 20/133/166
f 20/133/166 18/134/167 27/131/157
f 27/131/157 18/134/167 28/130/160
f 18/134/167 12/135/168 28/130/160
f 28/130/160 12/135/168 4/129/165
f 4/129/165 12/135/168 10/124/140
